#!OML:ASF C:\ViconDB\ViconDB\414\Spring2016\041811\Spring2016.ASF
:FULLY-SPECIFIED
:DEGREES
261
root 5.72313 18.0641 -24.3466 -169.206 -9.82136 177.24
lowerback 9.96298 0.656225 -3.65658
upperback 0.33881 0.395879 -0.0209826
thorax -5.26671 0.259775 1.98356
lowerneck -19.0331 0.744638 -9.26818
upperneck 20.0915 0.715623 11.47
head 9.36356 0.791596 5.66112
rclavicle -4.07509e-015 -6.16232e-015
rhumerus -30.1934 9.28766 -69.818
rradius 107.044
rwrist -7.41569
rhand -35.1017 -18.8486
rfingers 7.12502
rthumb -8.2429 -48.6678
lclavicle -4.07509e-015 -6.16232e-015
lhumerus -20.9027 -13.3236 55.7895
lradius 94.2697
lwrist 7.90996
lhand -31.1582 13.2574
lfingers 7.12502
lthumb -4.4359 43.191
rfemur -12.6808 -18.4041 16.035
rtibia 50.5301
rfoot -15.5798 -1.05295
rtoes -5.13101
lfemur -16.5248 -0.111718 -14.1035
ltibia 44.2722
lfoot -12.078 -0.0243458
ltoes -25.989
262
root 5.68584 18.3516 -24.6998 -169.792 -9.52054 177.529
lowerback 8.68958 0.68166 -3.51214
upperback 0.134111 0.517844 0.0451007
thorax -4.77176 0.32027 1.95901
lowerneck -18.4775 0.35152 -9.53703
upperneck 20.644 0.037856 11.7077
head 9.53169 0.437126 5.71838
rclavicle -2.64384e-014 2.78299e-015
rhumerus -28.2227 10.1057 -67.8659
rradius 108.814
rwrist -8.74644
rhand -35.2105 -18.947
rfingers 7.12502
rthumb -8.34797 -48.762
lclavicle -2.64384e-014 2.78299e-015
lhumerus -19.0911 -12.7305 53.8841
lradius 95.0012
lwrist 8.41117
lhand -31.8701 13.0059
lfingers 7.12502
lthumb -5.12335 42.924
rfemur -11.3652 -18.7691 15.7173
rtibia 49.5185
rfoot -19.6524 2.64202
rtoes -7.83993
lfemur -14.0862 -0.248169 -13.9036
ltibia 41.8866
lfoot -6.93547 1.32583
ltoes -24.982
263
root 5.65025 18.6369 -25.0366 -170.54 -9.18805 177.79
lowerback 7.78262 0.728083 -3.46203
upperback 0.0335257 0.634302 0.140149
thorax -4.37401 0.377287 2.02051
lowerneck -18.1016 -0.0461841 -9.94638
upperneck 21.0492 -0.621065 12.1112
head 9.68444 0.106418 5.8622
rclavicle 3.13086e-015 4.77083e-015
rhumerus -26.1175 10.9002 -65.7025
rradius 110.377
rwrist -9.17871
rhand -35.1881 -19.7118
rfingers 7.12502
rthumb -8.3263 -49.5277
lclavicle 3.13086e-015 4.77083e-015
lhumerus -17.3103 -12.1855 51.8058
lradius 95.7086
lwrist 9.56903
lhand -32.0888 12.3962
lfingers 7.12502
lthumb -5.33445 42.309
rfemur -10.1017 -19.1139 15.3556
rtibia 48.6497
rfoot -23.6046 6.24214
rtoes -10.636
lfemur -11.7471 -0.391054 -13.7436
ltibia 39.5683
lfoot -1.50285 2.97812
ltoes -23.3331
264
root 5.61852 18.9265 -25.3711 -171.189 -8.80932 177.917
lowerback 7.10812 0.795037 -3.47612
upperback -0.149733 0.754701 0.141259
thorax -4.19282 0.440607 2.02034
lowerneck -17.6699 -0.408106 -10.2043
upperneck 21.3333 -1.24311 12.389
head 9.78488 -0.208572 5.93261
rclavicle -3.81915e-014 3.57812e-015
rhumerus -24.1653 11.5917 -63.6063
rradius 112.069
rwrist -10.9959
rhand -35.3025 -20.2753
rfingers 7.12502
rthumb -8.4367 -50.0868
lclavicle -3.81915e-014 3.57812e-015
lhumerus -15.7413 -11.7272 49.6064
lradius 96.537
lwrist 10.4082
lhand -31.9453 12.567
lfingers 7.12502
lthumb -5.19595 42.4833
rfemur -9.07167 -19.1822 14.911
rtibia 47.941
rfoot -26.4659 9.48977
rtoes -12.4501
lfemur -9.60369 -0.50338 -13.7179
ltibia 37.2719
lfoot 3.72861 4.88877
ltoes -20.5412
265
root 5.59368 19.2125 -25.6932 -171.829 -8.60538 178.313
lowerback 6.58294 0.810437 -3.31921
upperback -0.275692 0.821594 0.342323
thorax -4.03268 0.474915 2.13772
lowerneck -17.3861 -0.719486 -10.594
upperneck 21.534 -1.70996 12.6213
head 9.86752 -0.456145 6.02983
rclavicle 1.83876e-015 7.95139e-016
rhumerus -22.086 12.1033 -61.4155
rradius 113.674
rwrist -12.6442
rhand -35.415 -20.7653
rfingers 7.12502
rthumb -8.54531 -50.5724
lclavicle 1.83876e-015 7.95139e-016
lhumerus -14.3119 -11.1487 47.633
lradius 97.5055
lwrist 11.8603
lhand -32.3358 13.5366
lfingers 7.12502
lthumb -5.57297 43.4433
rfemur -8.22497 -19.2577 14.8826
rtibia 47.3128
rfoot -28.7343 12.4978
rtoes -13.9274
lfemur -7.80489 -0.569657 -13.3415
ltibia 35.2039
lfoot 8.97143 6.86482
ltoes -16.4826
266
root 5.572 19.4845 -26.01 -172.201 -8.30602 178.377
lowerback 5.70495 0.868843 -3.49478
upperback -0.272752 0.927501 0.447526
thorax -3.54682 0.525743 2.34446
lowerneck -17.3064 -0.96706 -10.6731
upperneck 21.7248 -2.04006 12.4671
head 9.96493 -0.642796 5.95037
rclavicle -2.23881e-014 -7.7526e-015
rhumerus -19.8532 12.3096 -59.2406
rradius 114.883
rwrist -12.9896
rhand -35.6554 -21.6827
rfingers 7.12502
rthumb -8.77723 -51.4802
lclavicle -2.23881e-014 -7.7526e-015
lhumerus -12.7048 -10.2664 45.6929
lradius 98.1963
lwrist 13.0396
lhand -32.2231 13.5773
lfingers 7.12502
lthumb -5.46412 43.4868
rfemur -7.77948 -18.9989 14.6319
rtibia 46.8119
rfoot -30.5172 15.2914
rtoes -15.0385
lfemur -6.45525 -0.767749 -13.3934
ltibia 33.5217
lfoot 13.714 8.91305
ltoes -11.7072
267
root 5.55444 19.734 -26.3065 -172.467 -8.20076 178.478
lowerback 5.06107 0.824497 -3.62267
upperback -0.323007 0.892407 0.589338
thorax -3.23868 0.508708 2.57277
lowerneck -17.3034 -1.18057 -10.7486
upperneck 21.9512 -2.26802 12.1482
head 10.0742 -0.794879 5.82459
rclavicle -9.0944e-015 7.7526e-015
rhumerus -17.5823 12.4596 -57.22
rradius 116.029
rwrist -13.7013
rhand -35.4623 -22.6314
rfingers 7.12502
rthumb -8.59095 -52.4366
lclavicle -9.0944e-015 7.7526e-015
lhumerus -11.2941 -9.16012 43.9056
lradius 98.7756
lwrist 14.0269
lhand -31.9932 13.6869
lfingers 7.12502
lthumb -5.24219 43.6021
rfemur -7.39688 -18.7523 14.5565
rtibia 46.2703
rfoot -31.7021 15.9313
rtoes -15.7221
lfemur -5.78032 -0.941012 -13.3205
ltibia 32.5153
lfoot 18.0056 10.224
ltoes -6.6423
268
root 5.53337 19.9389 -26.58 -172.603 -8.00003 178.553
lowerback 4.5229 0.820039 -3.65687
upperback -0.489415 0.907799 0.639455
thorax -3.1105 0.519055 2.64734
lowerneck -17.1071 -1.35982 -10.8965
upperneck 22.1766 -2.56282 12.1835
head 10.1587 -0.960239 5.82998
rclavicle -2.35063e-014 -1.98785e-016
rhumerus -15.7424 12.2359 -55.5417
rradius 116.893
rwrist -14.536
rhand -35.0894 -22.6215
rfingers 7.12502
rthumb -8.23106 -52.4411
lclavicle -2.35063e-014 -1.98785e-016
lhumerus -10.0431 -8.33755 42.1766
lradius 99.2001
lwrist 15.1859
lhand -32.1379 13.7423
lfingers 7.12502
lthumb -5.38187 43.654
rfemur -7.03761 -18.4235 14.4614
rtibia 45.6875
rfoot -32.2229 14.5891
rtoes -16.4452
lfemur -5.63757 -0.98023 -13.2912
ltibia 32.1256
lfoot 21.0015 10.3431
ltoes -1.37294
269
root 5.51772 20.1145 -26.8371 -172.749 -7.8936 178.391
lowerback 4.24296 0.79771 -3.87865
upperback -0.641019 0.873994 0.575055
thorax -3.10992 0.508349 2.70995
lowerneck -16.9631 -1.53281 -10.8691
upperneck 22.4616 -2.87867 12.116
head 10.2749 -1.1321 5.76596
rclavicle -1.46604e-015 4.57205e-015
rhumerus -13.9216 12.0305 -54.0239
rradius 117.582
rwrist -15.2352
rhand -34.7361 -22.6147
rfingers 7.12502
rthumb -7.89003 -52.4474
lclavicle -1.46604e-015 4.57205e-015
lhumerus -8.85147 -7.29183 40.5977
lradius 99.244
lwrist 15.7383
lhand -31.8401 13.344
lfingers 7.12502
lthumb -5.09433 43.2628
rfemur -6.69454 -18.0786 14.1517
rtibia 45.0646
rfoot -31.8547 12.754
rtoes -16.3428
lfemur -5.80167 -0.904156 -13.5121
ltibia 32.3096
lfoot 21.3381 9.41074
ltoes -0.705321
270
root 5.50415 20.2789 -27.0921 -172.961 -7.79486 178.309
lowerback 4.19988 0.79564 -3.90878
upperback -0.825928 0.865516 0.482999
thorax -3.27541 0.509996 2.63155
lowerneck -16.7085 -1.64872 -10.9795
upperneck 22.7253 -3.16741 12.3152
head 10.3637 -1.28192 5.82693
rclavicle -1.04362e-015 1.13307e-014
rhumerus -12.4307 11.5252 -52.8335
rradius 118.033
rwrist -15.5941
rhand -34.1163 -21.9346
rfingers 7.12502
rthumb -7.2918 -51.7889
lclavicle -1.04362e-015 1.13307e-014
lhumerus -7.75606 -6.40116 39.2577
lradius 99.3059
lwrist 16.4376
lhand -31.7771 13.2207
lfingers 7.12502
lthumb -5.03353 43.1409
rfemur -6.43162 -17.7509 14.0198
rtibia 44.374
rfoot -31.1285 11.4692
rtoes -16.0266
lfemur -6.0911 -0.638807 -13.6078
ltibia 32.7687
lfoot 20.4487 7.74293
ltoes -1.8591
271
root 5.48806 20.4326 -27.344 -173.161 -7.75465 178.323
lowerback 4.11586 0.748954 -3.9106
upperback -0.927379 0.807307 0.544607
thorax -3.32969 0.484543 2.70075
lowerneck -16.356 -1.7529 -11.2926
upperneck 22.8209 -3.37894 12.5649
head 10.3671 -1.40546 5.94617
rclavicle 1.54804e-014 8.15017e-015
rhumerus -10.8544 11.1781 -51.7398
rradius 118.241
rwrist -15.4891
rhand -33.668 -21.868
rfingers 7.12502
rthumb -6.85911 -51.7369
lclavicle 1.54804e-014 8.15017e-015
lhumerus -6.87028 -5.99701 37.877
lradius 98.9542
lwrist 17.0536
lhand -32.2577 13.5744
lfingers 7.12502
lthumb -5.49754 43.4831
rfemur -6.39071 -17.8652 13.9958
rtibia 43.6607
rfoot -30.1773 10.7765
rtoes -15.3604
lfemur -6.47621 -0.454165 -13.622
ltibia 33.1617
lfoot 19.3588 6.45684
ltoes -2.32956
272
root 5.47466 20.5793 -27.5892 -173.464 -7.70597 178.438
lowerback 4.69818 0.802521 -3.79444
upperback -1.26081 0.857854 0.607557
thorax -4.00753 0.526119 2.6892
lowerneck -15.969 -1.85307 -11.3934
upperneck 23.1932 -3.63349 12.5541
head 10.4625 -1.57154 5.93455
rclavicle -1.09332e-015 -7.15625e-015
rhumerus -9.94547 10.6438 -51.0062
rradius 118.197
rwrist -14.9433
rhand -33.3696 -21.6006
rfingers 7.12502
rthumb -6.57104 -51.4786
lclavicle -1.09332e-015 -7.15625e-015
lhumerus -6.20954 -5.28705 37.4651
lradius 98.5471
lwrist 17.5522
lhand -32.0332 13.4076
lfingers 7.12502
lthumb -5.28074 43.3218
rfemur -6.34539 -17.9199 14.1447
rtibia 42.7948
rfoot -29.3093 10.71
rtoes -14.7821
lfemur -6.76898 -0.192115 -13.5103
ltibia 33.2888
lfoot 18.6688 5.17277
ltoes -2.91406
273
root 5.45777 20.7152 -27.8284 -173.811 -7.62381 178.492
lowerback 4.85638 0.805435 -3.81663
upperback -1.16889 0.861653 0.752805
thorax -4.00458 0.529199 2.85109
lowerneck -15.7844 -2.00803 -11.8095
upperneck 23.1875 -3.8455 12.806
head 10.4673 -1.69071 6.07273
rclavicle 3.39922e-014 -1.78906e-015
rhumerus -8.62557 9.95799 -50.3538
rradius 117.915
rwrist -14.1463
rhand -32.9937 -21.3426
rfingers 7.12502
rthumb -6.20811 -51.2317
lclavicle 3.39922e-014 -1.78906e-015
lhumerus -5.47175 -4.28602 37.1749
lradius 97.936
lwrist 17.7848
lhand -32.0633 13.6445
lfingers 7.12502
lthumb -5.30983 43.5579
rfemur -6.2898 -18.1348 14.1824
rtibia 41.7517
rfoot -28.6041 10.69
rtoes -14.5932
lfemur -6.97475 -0.0871141 -13.5135
ltibia 33.1162
lfoot 18.2932 4.2625
ltoes -2.79604
